<?xml version="1.0" encoding="UTF-8" standalone="no"?>
<!-- Created with Inkscape (http://www.inkscape.org/) -->

<svg
   width="372.53345mm"
   height="324.06738mm"
   viewBox="0 0 372.53345 324.06738"
   version="1.1"
   id="svg5"
   sodipodi:docname="alert.svg"
   inkscape:version="1.1.2 (b8e25be833, 2022-02-05)"
   xmlns:inkscape="http://www.inkscape.org/namespaces/inkscape"
   xmlns:sodipodi="http://sodipodi.sourceforge.net/DTD/sodipodi-0.dtd"
   xmlns="http://www.w3.org/2000/svg"
   xmlns:svg="http://www.w3.org/2000/svg">
  <sodipodi:namedview
     id="namedview7"
     pagecolor="#ffffff"
     bordercolor="#666666"
     borderopacity="1.0"
     inkscape:pageshadow="2"
     inkscape:pageopacity="0.0"
     inkscape:pagecheckerboard="0"
     inkscape:document-units="mm"
     showgrid="false"
     inkscape:zoom="0.77771465"
     inkscape:cx="790.77847"
     inkscape:cy="644.19515"
     inkscape:window-width="2560"
     inkscape:window-height="1377"
     inkscape:window-x="-8"
     inkscape:window-y="-8"
     inkscape:window-maximized="1"
     inkscape:current-layer="layer1" />
  <defs
     id="defs2" />
  <g
     inkscape:label="Layer 1"
     inkscape:groupmode="layer"
     id="layer1"
     transform="translate(103.9363,103.62893)">
    <g
       style="overflow:visible"
       id="g851"
       transform="matrix(1.0583333,0,0,1.0583333,82.329897,110.29875)">
      <svg
         id="svg8"
         version="1.1"
         y="-250"
         x="-250"
         viewBox="-250 -250 500 500"
         height="500"
         width="500"
         style="overflow:visible">
        <g
           style="fill:#ffffff;stroke-linejoin:round"
           id="g6">
          <path
             style="fill:#ffff00;fill-opacity:1;stroke:#444444;stroke-width:12;stroke-linecap:butt;stroke-linejoin:round;stroke-opacity:1"
             id="path4"
             d="M 0,-196.137 170.001,98.069 -170,98.06899 Z" />
        </g>
      </svg>
      <svg
         id="svg22"
         version="1.1"
         y="-265"
         x="-250"
         viewBox="-250 -250 500 500"
         height="500"
         width="500"
         style="overflow:visible">
        <g
           style="fill:#ffffff;stroke-linejoin:round"
           id="g20">
          <path
             style="fill:#444444;fill-opacity:1;stroke:none;stroke-linecap:butt;stroke-linejoin:round"
             id="path10"
             d="M 18.35424,66.61824 A 18.353952,18.339072 0 0 1 -7.2e-4,84.95976 18.353952,18.339072 0 0 1 -18.35568,66.61824 18.353952,18.339072 0 0 1 -7.2e-4,48.281616 18.353952,18.339072 0 0 1 18.353232,66.620688 Z" />
          <path
             style="fill:#444444;fill-opacity:1;stroke:none;stroke-linecap:butt;stroke-linejoin:round"
             id="path12"
             d="m -4.81e-4,-84.96 a 23.792544,23.772672 0 0 0 -23.792544,23.7732 23.792544,23.772672 0 0 0 0.215678,2.969256 l 5.222639,71.80896 A 18.353952,18.339072 0 0 0 2.52e-4,31.92804 18.353952,18.339072 0 0 0 18.355212,13.591416 l 5.215775,-71.72064 a 23.792544,23.772672 0 0 0 0.222388,-3.0564 23.792544,23.772672 0 0 0 -23.79744,-23.77368 z" />
          <path
             style="fill:#444444;fill-opacity:1;stroke:none;stroke-linecap:butt;stroke-linejoin:round"
             id="path14"
             d="m -8.916961,-76.596192 a 3.908817,3.905956 0 0 0 -2.437052,0.813336 c -4.598117,3.444902 -6.259344,8.796336 -6.679488,13.917504 -0.420092,5.121168 0.198676,10.407359 0.527688,15.212159 a 3.908817,3.905956 0 1 0 7.798751,-0.533012 c -0.344602,-5.0328 -0.864495,-10.040256 -0.536237,-14.041488 0.328219,-4.001108 1.302144,-6.599904 3.57826,-8.3052 a 3.908817,3.905956 0 0 0 -2.252228,-7.066656 z" />
          <path
             style="fill:none;stroke:#000000;stroke-width:0;stroke-linecap:butt;stroke-linejoin:round;stroke-opacity:0"
             id="path16"
             d="M 18.35424,66.61824 A 18.353952,18.339072 0 0 1 -7.2e-4,84.95976 18.353952,18.339072 0 0 1 -18.35568,66.61824 18.353952,18.339072 0 0 1 -7.2e-4,48.281616 18.353952,18.339072 0 0 1 18.353232,66.620688 Z" />
          <path
             style="fill:none;stroke:#000000;stroke-width:0;stroke-linecap:butt;stroke-linejoin:round;stroke-opacity:0"
             id="path18"
             d="m -4.81e-4,-84.96 a 23.792544,23.772672 0 0 0 -23.792544,23.7732 23.792544,23.772672 0 0 0 0.215678,2.969256 l 5.222639,71.80896 A 18.353952,18.339072 0 0 0 2.52e-4,31.92804 18.353952,18.339072 0 0 0 18.355212,13.591416 l 5.215775,-71.72064 a 23.792544,23.772672 0 0 0 0.222388,-3.0564 23.792544,23.772672 0 0 0 -23.79744,-23.77368 z" />
        </g>
      </svg>
    </g>
  </g>
</svg>
