<svg xmlns="http://www.w3.org/2000/svg" width="155.984" height="200" viewBox="0 0 155.984 200"><g transform="translate(-13.11 -258.718)"><path d="M26.256,258.718A13.235,13.235,0,0,0,13.11,271.855V445.572a13.243,13.243,0,0,0,13.146,13.146h129.7a13.232,13.232,0,0,0,13.134-13.146V271.855a13.224,13.224,0,0,0-13.134-13.137Zm0,10.818h129.7a2.2,2.2,0,0,1,2.316,2.319V445.572a2.21,2.21,0,0,1-2.316,2.328H26.256a2.212,2.212,0,0,1-2.319-2.328V271.855A2.2,2.2,0,0,1,26.256,269.536Zm91.057,52.219L84.7,363.709,60.625,336.973l-11.259,18.1L84.7,392.094l48.146-54.3Z" transform="translate(0 0)"/></g></svg>