<?xml version="1.0" encoding="UTF-8" standalone="no"?>
<svg
   width="11.996531"
   height="15.000007"
   viewBox="0 0 11.996531 15.000007"
   version="1.1"
   id="svg1301"
   sodipodi:docname="gitpullrequest.svg"
   inkscape:version="1.1.2 (b8e25be833, 2022-02-05)"
   xmlns:inkscape="http://www.inkscape.org/namespaces/inkscape"
   xmlns:sodipodi="http://sodipodi.sourceforge.net/DTD/sodipodi-0.dtd"
   xmlns="http://www.w3.org/2000/svg"
   xmlns:svg="http://www.w3.org/2000/svg">
  <defs
     id="defs1305" />
  <sodipodi:namedview
     id="namedview1303"
     pagecolor="#ffffff"
     bordercolor="#666666"
     borderopacity="1.0"
     inkscape:pageshadow="2"
     inkscape:pageopacity="0.0"
     inkscape:pagecheckerboard="0"
     showgrid="false"
     inkscape:zoom="54.5625"
     inkscape:cx="5.9931271"
     inkscape:cy="7.9908362"
     inkscape:window-width="2560"
     inkscape:window-height="1377"
     inkscape:window-x="-8"
     inkscape:window-y="-8"
     inkscape:window-maximized="1"
     inkscape:current-layer="svg1301" />
  <path
     fill-rule="evenodd"
     d="M 10.998266,11.28 V 5 c -0.03,-0.78 -0.34,-1.47 -0.94,-2.06 C 9.4582659,2.35 8.7782659,2.03 7.9982659,2 h -1 V 0 l -3,3 3,3 V 4 h 1 c 0.27,0.02 0.48,0.11 0.69,0.31 0.21,0.2 0.3,0.42 0.31,0.69 v 6.28 a 1.993,1.993 0 0 0 1,3.72 1.993,1.993 0 0 0 1.0000001,-3.72 z M 9.9982659,14.2 c -0.66,0 -1.2,-0.55 -1.2,-1.2 0,-0.65 0.55,-1.2 1.2,-1.2 0.6500001,0 1.2000001,0.55 1.2000001,1.2 0,0.65 -0.55,1.2 -1.2000001,1.2 z m -6,-11.2 c 0,-1.11 -0.89,-2 -2,-2 A 1.993,1.993 0 0 0 0.99826588,4.72 v 6.56 A 1.993,1.993 0 0 0 1.9982659,15 a 1.993,1.993 0 0 0 1,-3.72 V 4.72 c 0.59,-0.34 1,-0.98 1,-1.72 z m -0.8,10 c 0,0.66 -0.55,1.2 -1.2,1.2 -0.65,0 -1.20000002,-0.55 -1.20000002,-1.2 0,-0.65 0.55000002,-1.2 1.20000002,-1.2 0.65,0 1.2,0.55 1.2,1.2 z m -1.2,-8.8 c -0.66,0 -1.20000002,-0.55 -1.20000002,-1.2 0,-0.65 0.55000002,-1.2 1.20000002,-1.2 0.65,0 1.2,0.55 1.2,1.2 0,0.65 -0.55,1.2 -1.2,1.2 z"
     id="path1299" />
</svg>
