<?xml version="1.0" encoding="UTF-8" standalone="no"?>
<!--?xml version="1.0" encoding="utf-8"?-->

<!-- Generator: Adobe Illustrator 18.0.0, SVG Export Plug-In . SVG Version: 6.00 Build 0)  -->

<svg
   version="1.1"
   id="_x31_0"
   x="0px"
   y="0px"
   viewBox="0 0 512.00098 351.35999"
   style="opacity:1"
   xml:space="preserve"
   sodipodi:docname="guidance.svg"
   width="512.00098"
   height="351.35999"
   inkscape:version="1.1.2 (b8e25be833, 2022-02-05)"
   xmlns:inkscape="http://www.inkscape.org/namespaces/inkscape"
   xmlns:sodipodi="http://sodipodi.sourceforge.net/DTD/sodipodi-0.dtd"
   xmlns="http://www.w3.org/2000/svg"
   xmlns:svg="http://www.w3.org/2000/svg"><defs
   id="defs1208" /><sodipodi:namedview
   id="namedview1206"
   pagecolor="#ffffff"
   bordercolor="#666666"
   borderopacity="1.0"
   inkscape:pageshadow="2"
   inkscape:pageopacity="0.0"
   inkscape:pagecheckerboard="0"
   showgrid="false"
   inkscape:zoom="1.7050781"
   inkscape:cx="255.70676"
   inkscape:cy="175.35853"
   inkscape:window-width="2560"
   inkscape:window-height="1377"
   inkscape:window-x="-8"
   inkscape:window-y="-8"
   inkscape:window-maximized="1"
   inkscape:current-layer="_x31_0" />
<style
   type="text/css"
   id="style1187">
	.st0{fill:#374149;}
</style>
<g
   id="g1203"
   transform="translate(0,-80.32)">
	<path
   class="st0"
   d="m 64.481,171.441 -0.078,17.36 c 20.078,-8.719 45.359,-13.438 71.68,-13.438 27.679,0 54,5.117 74.558,14.637 v -17.438 c -21.442,-8.562 -47.52,-13.199 -74.558,-13.199 -25.763,0.001 -50.72,4.239 -71.602,12.078 z"
   style="fill:#4b4b4b"
   id="path1189" />
	<path
   class="st0"
   d="m 64.32,231.121 -0.078,17.282 c 20.078,-8.723 45.438,-13.52 71.84,-13.52 27.598,0 53.918,5.199 74.48,14.637 v -17.438 c -21.442,-8.48 -47.519,-13.199 -74.48,-13.199 -25.84,0 -50.883,4.321 -71.762,12.238 z"
   style="fill:#4b4b4b"
   id="path1191" />
	<path
   class="st0"
   d="m 64.16,290.723 -0.078,17.359 c 20.078,-8.878 45.519,-13.602 72,-13.602 27.598,0 53.918,5.122 74.48,14.641 v -17.519 c -21.442,-8.481 -47.519,-13.122 -74.48,-13.122 -25.922,0 -50.961,4.243 -71.922,12.243 z"
   style="fill:#4b4b4b"
   id="path1193" />
	<path
   class="st0"
   d="M 301.442,172.563 V 190 c 20.398,-9.52 46.878,-14.637 74.48,-14.637 26.481,0 51.68,4.718 71.84,13.519 l 0.078,-17.363 c -20.957,-7.918 -46,-12.156 -71.918,-12.156 -26.961,0.001 -53.039,4.637 -74.48,13.2 z"
   style="fill:#4b4b4b"
   id="path1195" />
	<path
   class="st0"
   d="m 301.363,232.16 v 17.442 c 20.477,-9.52 46.957,-14.719 74.558,-14.719 26.398,0 51.598,4.719 71.68,13.438 v -17.278 c -20.879,-7.839 -45.84,-12.16 -71.68,-12.16 -26.96,0 -53.12,4.719 -74.558,13.277 z"
   style="fill:#4b4b4b"
   id="path1197" />
	<path
   class="st0"
   d="m 301.363,291.68 -0.082,16.16 v 1.364 c 20.48,-9.524 46.961,-14.723 74.64,-14.723 26.321,0 51.36,4.641 71.442,13.359 l 0.078,-17.277 c -20.879,-7.84 -45.762,-12.082 -71.52,-12.082 -26.96,-10e-4 -53.12,4.64 -74.558,13.199 z"
   style="fill:#4b4b4b"
   id="path1199" />
	<path
   class="st0"
   d="m 467.922,100.48 c -24.878,-12.961 -57.519,-20.16 -92,-20.16 -28.48,0 -55.762,4.961 -78.402,14 -0.32,0.16 -0.636,0.242 -0.957,0.402 C 292.16,96.48 288,98.403 284,100.48 c -11.519,5.922 -20.879,12.961 -28,20.723 -7.117,-7.762 -16.481,-14.801 -28,-20.723 -4.481,-2.32 -9.278,-4.48 -14.238,-6.398 -0.398,-0.16 -0.801,-0.32 -1.199,-0.48 -22.242,-8.641 -48.801,-13.282 -76.48,-13.282 -34.481,0 -67.122,7.199 -92,20.16 C 15.68,115.281 0,136.32 0,159.68 v 223.363 c 0,10.161 8.242,18.321 18.32,18.321 h 42.161 c 2.48,0 4.961,-0.562 7.199,-1.524 17.762,-7.519 41.519,-12.636 68.402,-12.636 47.199,0 84.718,15.598 96.961,32.797 0.32,0.402 0.637,0.801 0.957,1.281 5.363,6.558 13.442,10.398 22,10.398 8.562,0 16.641,-3.84 22,-10.398 0.32,-0.48 0.641,-0.878 0.961,-1.281 12.238,-17.199 49.762,-32.797 96.961,-32.797 27.039,0 50.801,5.117 68.481,12.636 2.32,0.962 4.797,1.524 7.278,1.524 h 42 c 10.16,0 18.32,-8.16 18.32,-18.321 V 159.68 C 512,136.32 496.32,115.281 467.922,100.48 Z m -230.64,238.083 v 22.558 c -2.879,-1.84 -6,-3.602 -9.282,-5.282 -15.68,-8.16 -34.398,-14 -54.637,-17.277 -12,-1.84 -24.562,-2.883 -37.281,-2.883 -12.161,0 -24.161,0.961 -35.68,2.641 -20.961,3.199 -40.242,9.121 -56.32,17.519 -3.199,1.68 -6.321,3.442 -9.282,5.282 V 159.68 c 0,-10.718 11.199,-22 29.84,-30.558 18,-8.32 42.878,-13.918 71.442,-13.918 30.16,0 56.398,6.398 74.558,15.437 16.722,8.321 26.641,19.039 26.641,29.039 v 178.883 z m 239.917,22.558 c -2.957,-1.84 -6.078,-3.602 -9.278,-5.282 -14.48,-7.519 -31.602,-13.117 -50.242,-16.476 -13.278,-2.402 -27.36,-3.684 -41.758,-3.684 -13.839,0 -27.359,1.203 -40.242,3.442 -19.199,3.282 -36.879,8.961 -51.68,16.718 -3.278,1.68 -6.398,3.442 -9.278,5.282 v -22 -179.441 c 0,-10.078 9.918,-20.718 26.719,-29.117 18.16,-9.043 44.32,-15.359 74.48,-15.359 28.879,0 54,5.758 72.078,14.16 18.242,8.558 29.199,19.758 29.199,30.316 v 201.441 z"
   style="fill:#4b4b4b"
   id="path1201" />
</g>
</svg>
